<svg width="16" height="17" viewBox="0 0 16 17" fill="none" xmlns="http://www.w3.org/2000/svg">
<path d="M8 1.25C6.15046 1.27244 4.38299 2.01714 3.07507 3.32507C1.76714 4.63299 1.02244 6.40046 1 8.25C1.02244 10.0995 1.76714 11.867 3.07507 13.1749C4.38299 14.4829 6.15046 15.2276 8 15.25C9.84954 15.2276 11.617 14.4829 12.9249 13.1749C14.2329 11.867 14.9776 10.0995 15 8.25C14.9776 6.40046 14.2329 4.63299 12.9249 3.32507C11.617 2.01714 9.84954 1.27244 8 1.25ZM12 8.75H8.5V12.25H7.5V8.75H4V7.75H7.5V4.25H8.5V7.75H12V8.75Z" fill="black"/>
</svg>
