<svg width="16" height="17" viewBox="0 0 16 17" fill="none" xmlns="http://www.w3.org/2000/svg">
<g clip-path="url(#clip0_74_1921)">
<path d="M8 2.25H3.33333C2.97971 2.25 2.64057 2.39048 2.39052 2.64052C2.14048 2.89057 2 3.22971 2 3.58333V12.9167C2 13.2703 2.14048 13.6094 2.39052 13.8595C2.64057 14.1095 2.97971 14.25 3.33333 14.25H12.6667C13.0203 14.25 13.3594 14.1095 13.6095 13.8595C13.8595 13.6094 14 13.2703 14 12.9167V8.25" stroke="#128DEF" stroke-width="1.5" stroke-linecap="round" stroke-linejoin="round"/>
<path d="M12.2504 2.00015C12.5156 1.73493 12.8753 1.58594 13.2504 1.58594C13.6255 1.58594 13.9852 1.73493 14.2504 2.00015C14.5156 2.26537 14.6646 2.62508 14.6646 3.00015C14.6646 3.37522 14.5156 3.73493 14.2504 4.00015L8.24172 10.0095C8.08342 10.1676 7.88786 10.2834 7.67305 10.3462L5.75772 10.9062C5.70036 10.9229 5.63955 10.9239 5.58166 10.9091C5.52377 10.8942 5.47094 10.8641 5.42869 10.8219C5.38643 10.7796 5.35631 10.7268 5.34148 10.6689C5.32665 10.611 5.32766 10.5502 5.34439 10.4928L5.90439 8.57748C5.96741 8.36285 6.08341 8.16752 6.24172 8.00948L12.2504 2.00015Z" stroke="#128DEF" stroke-width="1.5" stroke-linecap="round" stroke-linejoin="round"/>
</g>
<defs>
<clipPath id="clip0_74_1921">
<rect width="16" height="16" fill="white" transform="translate(0 0.25)"/>
</clipPath>
</defs>
</svg>
