<svg width="20" height="20" viewBox="0 0 20 20" fill="none" xmlns="http://www.w3.org/2000/svg">
<path d="M10.0003 1.66699C5.40033 1.66699 1.66699 5.40033 1.66699 10.0003C1.66699 14.6003 5.40033 18.3337 10.0003 18.3337C14.6003 18.3337 18.3337 14.6003 18.3337 10.0003C18.3337 5.40033 14.6003 1.66699 10.0003 1.66699ZM10.0003 5.00033C11.6087 5.00033 12.917 6.30866 12.917 7.91699C12.917 9.52533 11.6087 10.8337 10.0003 10.8337C8.39199 10.8337 7.08366 9.52533 7.08366 7.91699C7.08366 6.30866 8.39199 5.00033 10.0003 5.00033ZM10.0003 16.667C8.30866 16.667 6.30866 15.9837 4.88366 14.267C6.34351 13.1222 8.14512 12.5 10.0003 12.5C11.8555 12.5 13.6571 13.1222 15.117 14.267C13.692 15.9837 11.692 16.667 10.0003 16.667Z" fill="white"/>
</svg>
