<svg width="24" height="25" viewBox="0 0 24 25" fill="none" xmlns="http://www.w3.org/2000/svg">
<path d="M12 22.75C17.799 22.75 22.5 18.049 22.5 12.25C22.5 6.45101 17.799 1.75 12 1.75C6.20101 1.75 1.5 6.45101 1.5 12.25C1.5 18.049 6.20101 22.75 12 22.75Z" fill="#2196F3"/>
<path d="M11 11.25H13V16.75H11V11.25Z" fill="white"/>
<path d="M12 9.75C12.6904 9.75 13.25 9.19036 13.25 8.5C13.25 7.80964 12.6904 7.25 12 7.25C11.3096 7.25 10.75 7.80964 10.75 8.5C10.75 9.19036 11.3096 9.75 12 9.75Z" fill="white"/>
</svg>
