<svg width="71" height="71" viewBox="0 0 71 71" fill="none" xmlns="http://www.w3.org/2000/svg">
<path fill-rule="evenodd" clip-rule="evenodd" d="M65.0837 35.5003C65.0837 19.1615 51.8392 5.91699 35.5003 5.91699C19.1615 5.91699 5.91699 19.1615 5.91699 35.5003C5.91699 51.8392 19.1615 65.0837 35.5003 65.0837C51.8392 65.0837 65.0837 51.8392 65.0837 35.5003ZM35.5003 20.7087C36.2849 20.7087 37.0374 21.0203 37.5922 21.5751C38.147 22.1299 38.4587 22.8824 38.4587 23.667V38.4587C38.4587 39.2433 38.147 39.9957 37.5922 40.5505C37.0374 41.1053 36.2849 41.417 35.5003 41.417C34.7157 41.417 33.9633 41.1053 33.4085 40.5505C32.8537 39.9957 32.542 39.2433 32.542 38.4587V23.667C32.542 22.8824 32.8537 22.1299 33.4085 21.5751C33.9633 21.0203 34.7157 20.7087 35.5003 20.7087ZM32.542 47.3337C32.542 46.5491 32.8537 45.7966 33.4085 45.2418C33.9633 44.687 34.7157 44.3753 35.5003 44.3753H35.524C36.3086 44.3753 37.0611 44.687 37.6159 45.2418C38.1706 45.7966 38.4823 46.5491 38.4823 47.3337C38.4823 48.1183 38.1706 48.8707 37.6159 49.4255C37.0611 49.9803 36.3086 50.292 35.524 50.292H35.5003C34.7157 50.292 33.9633 49.9803 33.4085 49.4255C32.8537 48.8707 32.542 48.1183 32.542 47.3337Z" fill="#EDD767"/>
</svg>
